<?xml version="1.0"?>
<svg xmlns="http://www.w3.org/2000/svg" xmlns:xlink="http://www.w3.org/1999/xlink" xmlns:svgjs="http://svgjs.com/svgjs" version="1.1" width="512" height="512" x="0" y="0" viewBox="0 0 512 512" style="enable-background:new 0 0 512 512" xml:space="preserve" class=""><g transform="matrix(-1,-1.2246467991473532e-16,1.2246467991473532e-16,-1,517.0001831054688,522.0002746582031)"><path xmlns="http://www.w3.org/2000/svg" d="m48 488a24 24 0 0 1 0-48 294.062 294.062 0 0 0 209.3-86.7 294.066 294.066 0 0 0 86.7-209.3v-96a24 24 0 0 1 48 0v96a341.876 341.876 0 0 1 -27.043 133.907 342.818 342.818 0 0 1 -73.712 109.337 343 343 0 0 1 -243.245 100.756z" fill="#ffffff" data-original="#8690fa" style="" class=""/><path xmlns="http://www.w3.org/2000/svg" d="m464.017 200a23.96 23.96 0 0 1 -19.218-9.6l-76.799-102.4-76.8 102.4a24 24 0 1 1 -38.4-28.8l96-128a24 24 0 0 1 38.4 0l96 128a24 24 0 0 1 -19.183 38.4z" fill="#ffffff" data-original="#5153ff" style="" class=""/></g></svg>
